<?xml version="1.0" standalone="no"?>
<!DOCTYPE svg PUBLIC "-//W3C//DTD SVG 20010904//EN"
 "http://www.w3.org/TR/2001/REC-SVG-20010904/DTD/svg10.dtd">
<svg version="1.0" xmlns="http://www.w3.org/2000/svg"
 width="220.000000pt" height="220.000000pt" viewBox="0 0 220.000000 220.000000"
 preserveAspectRatio="xMidYMid meet">
<metadata>
Created by potrace 1.11, written by Peter Selinger 2001-2013
</metadata>
<g transform="translate(0.000000,220.000000) scale(0.100000,-0.100000)"
fill="#000000" stroke="none">
<path d="M470 2043 c-198 -33 -364 -191 -373 -353 -3 -55 57 -180 86 -180 13
0 52 -33 54 -47 1 -6 -4 -17 -12 -23 -8 -7 -15 -16 -15 -21 0 -4 -12 -25 -26
-46 -63 -91 -130 -247 -154 -358 -7 -27 -14 -59 -17 -70 -9 -35 -11 -270 -2
-280 4 -6 11 -26 14 -45 3 -18 9 -38 13 -44 4 -6 7 -13 8 -16 6 -38 97 -176
143 -218 80 -75 196 -136 329 -175 75 -21 89 -22 567 -22 270 0 504 3 520 7
86 18 126 29 152 39 54 22 158 74 171 87 7 6 16 12 20 12 8 0 88 77 116 110
36 45 95 166 114 235 19 69 23 239 8 305 -3 14 -9 41 -12 60 -8 49 -41 144
-75 218 -16 35 -29 67 -29 72 0 6 -4 10 -10 10 -5 0 -10 5 -10 10 0 6 -18 37
-39 70 -54 81 -57 92 -23 112 47 28 84 75 102 129 38 119 -31 257 -176 348
-135 87 -313 102 -413 36 -58 -39 -86 -97 -90 -187 l-1 -28 -77 7 c-97 8 -339
8 -455 0 -66 -5 -88 -3 -89 6 -9 130 -60 208 -154 231 -37 10 -131 15 -165 9z"/>
</g>
</svg>
